<svg width="388" height="107" viewBox="0 0 388 107" fill="none" xmlns="http://www.w3.org/2000/svg">
<path d="M137.435 68.6355C135.123 68.6355 133.536 66.8219 133.536 64.1468V51.9503H143.057V43.3356H133.558L133.468 33.4514H122.949L123.04 66.3685C123.04 73.0336 127.483 77.5676 134.012 77.5676C137.458 77.5676 140.722 77.0688 143.307 75.89V67.502C141.471 68.3537 139.455 68.7429 137.435 68.6355ZM162.554 42.7915C152.76 42.7915 145.234 50.4087 145.234 60.5196C145.234 70.5398 152.76 77.5223 163.143 77.5223C168.992 77.5223 174.478 75.4366 177.833 71.1293L169.763 67.4567C168.131 68.9529 165.637 69.5423 163.415 69.5423C159.788 69.5423 156.161 67.6834 155.662 63.8748H179.738C180.1 62.5139 180.282 61.1116 180.282 59.7035C180.282 49.3205 172.71 42.7915 162.576 42.7915H162.554ZM155.662 57.2098C155.979 52.6757 159.244 50.5901 162.826 50.5901C166.861 50.5901 169.899 52.8571 169.899 56.7564V57.2098H155.662ZM112.951 68.6355C110.639 68.6355 109.052 66.8219 109.052 64.1468V51.9503H118.573V43.3356H109.075L108.984 33.4514H98.465L98.5557 66.3685C98.5557 73.0336 102.999 77.5676 109.528 77.5676C112.974 77.5676 116.238 77.0688 118.823 75.89V67.502C116.989 68.3578 114.972 68.7472 112.951 68.6355ZM75.9989 42.7915C66.9761 42.7915 57.5 48.7311 57.5 60.701C57.5 70.6758 64.2104 77.6583 72.689 77.6583C77.5404 77.6583 81.213 75.7086 83.6161 72.2628L83.9334 77.0688H94.1124V61.109C94.1124 48.9578 85.1576 42.7915 75.9989 42.7915ZM75.9989 68.4542C71.4195 68.4542 68.1096 65.0536 68.1096 60.2476C68.1096 55.4415 71.3742 52.041 75.9989 52.041C80.2609 52.041 83.7974 55.7589 83.7974 60.2476C83.7974 64.7363 80.2609 68.4542 75.9989 68.4542ZM286.922 43.3809L279.577 64.6909L272.141 43.3809H260.716L274.408 77.0235H284.655L298.348 43.3809H286.922ZM314.172 42.7915C304.378 42.7915 296.852 50.4087 296.852 60.5196C296.852 70.5398 304.378 77.5223 314.761 77.5223C320.61 77.5223 326.096 75.4366 329.452 71.1293L321.381 67.4567C319.749 68.9529 317.255 69.5423 315.033 69.5423C311.406 69.5423 307.779 67.6834 307.28 63.8748H331.356C331.718 62.5139 331.901 61.1116 331.9 59.7035C331.9 49.3205 324.328 42.7915 314.172 42.7915ZM321.517 57.2098H307.28C307.598 52.6757 310.862 50.5901 314.444 50.5901C318.479 50.5901 321.517 52.8571 321.517 56.7564V57.2098ZM252.6 28.6C248.882 28.6 246.071 31.0937 246.071 34.5849C246.071 38.0761 248.882 40.6605 252.6 40.6605C256.318 40.6605 259.129 38.1215 259.129 34.5849C259.129 31.0484 256.363 28.6 252.6 28.6ZM204.856 42.7462C200.532 42.6763 196.488 44.8791 194.201 48.5497L193.839 43.3809H183.682V77.0235H194.201V59.3861C194.428 55.1694 197.828 51.9503 201.546 51.9503C205.718 51.9503 207.622 55.0788 207.622 59.0234V76.9782H218.096V57.3911C218.096 48.8671 212.904 42.7462 204.856 42.7462ZM236.957 68.6355C234.645 68.6355 233.058 66.8219 233.058 64.1468V51.9503H242.579V43.3356H233.058L232.967 33.4514H222.448L222.539 66.3685C222.539 73.0336 226.982 77.5676 233.511 77.5676C236.957 77.5676 240.222 77.0688 242.806 75.89V67.502C240.979 68.3541 238.97 68.7434 236.957 68.6355ZM247.295 43.3809V77.0235H257.904V43.3809C254.689 45.5119 250.51 45.5119 247.295 43.3809Z" fill="white" fill-opacity="0.44"/>
</svg>
