<svg width="388" height="106" viewBox="0 0 388 106" fill="none" xmlns="http://www.w3.org/2000/svg">
<path d="M143.54 64.5988C147.028 64.5988 148.609 63.0176 148.609 60.1934V60.013C148.609 57.1147 147.028 55.6623 143.199 55.6623H138.71V64.6213L143.54 64.5988ZM142.938 51.1152C146.345 51.1152 147.688 49.8947 147.688 47.1091V46.9288C147.688 44.3235 146.207 43.1417 142.899 43.1417H138.713V51.1539L142.938 51.1152ZM131.818 38.3112H144.081C150.873 38.3112 154.402 41.0967 154.402 46.3266V46.5874C154.425 46.9666 154.415 47.347 154.37 47.7242C154.328 48.1018 154.252 48.4748 154.141 48.8384C153.923 49.5688 153.575 50.2539 153.114 50.8608C152.654 51.4672 152.091 51.9873 151.449 52.3969C150.806 52.8069 150.095 53.0992 149.35 53.26C149.572 53.2785 149.794 53.3086 150.013 53.3501C150.232 53.392 150.448 53.4435 150.657 53.5047C150.866 53.5659 151.079 53.64 151.301 53.7237C151.508 53.8048 151.71 53.8973 151.907 54.0006C152.105 54.098 152.299 54.2055 152.486 54.3227C152.673 54.445 152.853 54.5739 153.027 54.7123C153.201 54.8508 153.369 54.9989 153.53 55.1535C153.686 55.3133 153.835 55.4809 153.974 55.6559C154.118 55.8248 154.254 56.001 154.38 56.184C154.508 56.3664 154.626 56.5556 154.734 56.7508C154.844 56.9473 154.94 57.1469 155.03 57.3498C155.12 57.5538 155.198 57.7623 155.265 57.9745C155.335 58.1861 155.394 58.4011 155.443 58.6186C155.488 58.8376 155.526 59.0566 155.552 59.2627C155.602 59.7053 155.612 60.1515 155.581 60.5959V60.7762C155.581 66.4891 151.833 69.4937 144.632 69.4937H131.818V38.3112Z" fill="white" fill-opacity="0.44"/>
<path d="M171.853 61.494V59.491H169.409C165.741 59.491 163.613 60.2929 163.613 62.7113C163.613 64.3763 164.614 65.4776 166.917 65.4776C169.702 65.5581 171.847 64.0156 171.847 61.4908M157.42 63.1525C157.42 57.8229 162.289 55.8198 169.284 55.8198H171.86V54.9149C171.86 52.2098 171.039 50.7285 168.153 50.7285C167.92 50.7043 167.685 50.7043 167.451 50.7285C167.218 50.7481 166.987 50.7924 166.762 50.8605C166.539 50.9282 166.323 51.0177 166.118 51.1278C165.704 51.3519 165.339 51.6575 165.046 52.0263C164.901 52.2108 164.775 52.4093 164.669 52.6188C164.565 52.8246 164.482 53.0403 164.421 53.2629C164.361 53.4905 164.323 53.7235 164.308 53.9585H158.289C158.689 48.5483 162.956 46.1427 168.549 46.1427C174.143 46.1427 178.085 48.3969 178.085 54.5993V69.4644H171.934V66.7206C171.16 67.8061 170.119 68.6731 168.912 69.2373C167.704 69.8016 166.371 70.044 165.042 69.941C160.914 69.941 157.426 67.9347 157.426 63.1461" fill="white" fill-opacity="0.44"/>
<path d="M180.75 62.3218H186.64C186.901 64.3248 187.902 65.5679 190.649 65.5679C193.094 65.5679 194.237 64.6469 194.237 63.0625C194.237 61.478 192.871 60.8404 189.606 60.3799C183.597 59.4557 181.191 57.7135 181.191 53.2662C181.191 48.8189 185.558 46.1525 190.208 46.1525C195.277 46.1525 199.064 47.9945 199.624 53.2372H193.828C193.486 51.3533 192.427 50.4935 190.263 50.4935C188.099 50.4935 187.043 51.4596 187.043 52.8379C187.043 54.2162 188.125 54.8409 191.432 55.3208C197.142 56.1452 200.288 57.575 200.288 62.4763C200.288 67.3777 196.72 69.9508 190.685 69.9508C184.65 69.9508 180.969 67.2424 180.747 62.3153" fill="white" fill-opacity="0.44"/>
<path d="M218.603 55.6044C218.403 52.1586 216.638 50.5935 213.634 50.5935C213.299 50.5925 212.964 50.6238 212.635 50.6869C211.977 50.8093 211.349 51.0587 210.787 51.4211C210.504 51.6006 210.24 51.8077 209.998 52.0394C209.76 52.2707 209.544 52.5241 209.354 52.7962C209.16 53.0696 208.993 53.3607 208.855 53.6657C208.719 53.9708 208.611 54.2877 208.533 54.6125C208.455 54.9379 208.41 55.2701 208.397 55.6044H218.616M201.925 58.3481V58.0067C201.904 57.6173 201.904 57.2271 201.925 56.8377C201.947 56.4473 201.989 56.0582 202.05 55.672C202.111 55.2857 202.193 54.903 202.295 54.5255C202.396 54.1482 202.516 53.7763 202.656 53.4113C202.794 53.0474 202.955 52.6899 203.129 52.3421C203.306 51.9942 203.5 51.6556 203.712 51.3277C203.924 50.9992 204.153 50.6821 204.398 50.3777C204.641 50.0716 204.901 49.7792 205.177 49.5018C205.451 49.2249 205.741 48.9608 206.04 48.7128C206.343 48.4653 206.658 48.2331 206.984 48.0172C207.637 47.5876 208.332 47.225 209.058 46.9352C209.42 46.7919 209.79 46.6673 210.165 46.5616C210.918 46.3507 211.691 46.2179 212.471 46.1655C212.861 46.1398 213.254 46.1333 213.643 46.1462C219.533 46.1462 224.763 49.592 224.763 57.7394V59.4849H208.397C208.558 63.2688 210.623 65.494 214.049 65.494C216.973 65.494 218.416 64.2316 218.815 62.3091H224.821C224.08 67.2362 220.152 69.9831 213.92 69.9831C206.929 69.9445 201.918 65.6357 201.918 58.3416" fill="white" fill-opacity="0.44"/>
<path d="M226.43 58.3481V58.0068C226.41 57.6163 226.41 57.225 226.43 56.8346C226.453 56.4441 226.495 56.0551 226.556 55.6688C226.68 54.8982 226.884 54.1427 227.165 53.4146C227.304 53.0499 227.463 52.693 227.641 52.3454C227.819 51.9953 228.015 51.6546 228.227 51.3246C228.44 50.9966 228.669 50.6795 228.913 50.3746C229.161 50.0686 229.419 49.7788 229.696 49.4986C229.973 49.2185 230.263 48.9576 230.565 48.7097C230.868 48.4621 231.183 48.23 231.509 48.0141C232.165 47.5846 232.863 47.2231 233.593 46.9353C233.956 46.7936 234.327 46.668 234.704 46.5617C235.08 46.4554 235.464 46.3749 235.85 46.3073C236.236 46.2397 236.623 46.1978 237.016 46.172C237.409 46.1463 237.798 46.1431 238.188 46.172C243.479 46.172 248.348 48.4778 248.931 55.028H242.909C242.89 54.7478 242.841 54.4704 242.764 54.2003C242.616 53.6553 242.357 53.1467 242.004 52.7061C241.652 52.2643 241.213 51.8984 240.716 51.6305C240.469 51.4975 240.209 51.3897 239.94 51.3085C239.671 51.2255 239.395 51.1695 239.115 51.141C238.836 51.1136 238.554 51.1136 238.275 51.141C235.006 51.141 232.823 53.5853 232.823 57.9553V58.2773C232.823 62.8663 234.826 65.2107 238.413 65.2107C238.718 65.2284 239.023 65.2155 239.325 65.172C239.627 65.1291 239.925 65.0569 240.214 64.9563C240.788 64.7498 241.318 64.4337 241.772 64.0256C241.998 63.8206 242.203 63.5941 242.384 63.3493C242.567 63.1055 242.723 62.8432 242.851 62.5668C243.11 62.0127 243.256 61.413 243.283 60.802H248.995C248.654 66.2122 244.725 69.9607 238.095 69.9607C231.464 69.9607 226.43 65.8032 226.43 58.3481Z" fill="white" fill-opacity="0.44"/>
<path d="M264.893 61.4943V59.4913H262.5C258.835 59.4913 256.704 60.2932 256.704 62.7116C256.704 64.3766 257.724 65.4779 260.03 65.4779C262.854 65.5584 264.999 64.0159 264.999 61.4911H264.919M250.492 63.1528C250.492 57.8232 255.361 55.8201 262.333 55.8201H264.909V54.9152C264.909 52.2101 264.069 50.7288 261.202 50.7288C260.968 50.6965 260.73 50.6901 260.494 50.7094C260.021 50.7459 259.561 50.8785 259.141 51.0991C258.932 51.2096 258.736 51.3424 258.555 51.4952C258.373 51.6446 258.206 51.813 258.059 51.9976C257.913 52.1836 257.785 52.3831 257.676 52.5933C257.573 52.8066 257.489 53.0286 257.425 53.2567C257.364 53.4852 257.328 53.7194 257.315 53.9555H251.287C251.686 48.5454 255.956 46.1398 261.528 46.1398C267.099 46.1398 271.086 48.394 271.086 54.5964V69.4615H264.932V66.7177C263.766 68.3609 262.003 69.4822 260.021 69.8414C259.368 69.9609 258.702 69.9956 258.04 69.9445C254.031 69.9445 250.466 67.9382 250.466 63.1496" fill="white" fill-opacity="0.44"/>
<path d="M275.532 46.5872H281.843V50.0845C282.016 49.7774 282.207 49.4817 282.417 49.1989C282.629 48.918 282.859 48.6512 283.106 48.4002C283.354 48.1496 283.618 47.9162 283.898 47.7014C284.176 47.4852 284.468 47.2893 284.774 47.1153C285.078 46.9389 285.395 46.784 285.721 46.6516C286.048 46.5222 286.384 46.4146 286.726 46.3296C287.066 46.2421 287.413 46.1786 287.762 46.1396C288.113 46.0982 288.466 46.081 288.819 46.088C289.153 46.0623 289.489 46.0623 289.823 46.088C290.159 46.1155 290.492 46.1693 290.819 46.2491C291.474 46.4109 292.099 46.6762 292.67 47.0348C292.954 47.2141 293.223 47.4155 293.475 47.637C293.729 47.8591 293.963 48.1015 294.177 48.3616C294.391 48.622 294.584 48.8987 294.754 49.1892C294.921 49.4795 295.067 49.782 295.189 50.0941C296.034 48.8403 297.177 47.8157 298.515 47.1121C299.858 46.4147 301.353 46.0627 302.866 46.088C307.091 46.088 310.36 48.7545 310.36 54.8023V69.4097H304.086V55.5591C304.086 52.635 302.798 51.3308 300.499 51.3308C300.348 51.3308 300.196 51.3308 300.045 51.3308C299.894 51.34 299.743 51.3572 299.594 51.3823C299.446 51.4113 299.298 51.4435 299.153 51.4853C299.006 51.527 298.862 51.5764 298.721 51.6335C298.583 51.6914 298.444 51.7558 298.312 51.8267C298.178 51.8992 298.048 51.9788 297.923 52.065C297.797 52.1498 297.676 52.2423 297.562 52.3419C297.449 52.4435 297.341 52.551 297.24 52.664C297.032 52.8854 296.849 53.1283 296.692 53.3886C296.613 53.5168 296.542 53.6502 296.48 53.7879C296.416 53.9263 296.36 54.0682 296.312 54.213C296.263 54.3554 296.223 54.5006 296.19 54.6477C296.157 54.7966 296.133 54.9471 296.116 55.0986C296.099 55.2483 296.091 55.3988 296.09 55.5494C296.091 55.7011 296.099 55.8527 296.116 56.0035V69.4677H289.82V55.5591C289.82 52.635 288.477 51.3308 286.252 51.3308C286.101 51.3308 285.949 51.3308 285.798 51.3308C285.646 51.34 285.494 51.3572 285.344 51.3823C285.194 51.4075 285.046 51.4409 284.9 51.4821C284.755 51.524 284.61 51.5755 284.468 51.6302C284.326 51.685 284.191 51.7526 284.056 51.8235C283.787 51.9656 283.536 52.1373 283.306 52.3355C283.193 52.4372 283.085 52.5447 282.983 52.6575C282.88 52.7671 282.782 52.8821 282.69 53.0021C282.598 53.1242 282.512 53.251 282.433 53.3821C282.356 53.5109 282.285 53.6462 282.22 53.7814C282.156 53.9198 282.101 54.0618 282.053 54.2065C281.955 54.4947 281.889 54.7928 281.856 55.0953C281.824 55.3972 281.824 55.7016 281.856 56.0035V69.4677H275.545V46.5872" fill="white" fill-opacity="0.44"/>
<path d="M331.821 58.1353V57.8133C331.821 53.1857 329.566 50.9218 326.369 50.9218C323.171 50.9218 320.788 53.2179 320.788 57.8133V58.1353C320.788 62.7018 322.971 64.927 326.417 64.927C329.863 64.927 331.808 62.6019 331.808 58.2158V58.1353M314.676 46.5743H321.007V50.1618C321.76 48.9073 322.827 47.8698 324.101 47.1507C324.736 46.7912 325.415 46.5152 326.121 46.3296C326.826 46.1459 327.552 46.0528 328.281 46.0526C333.872 46.0526 338.3 50.2004 338.3 57.7328V58.0967C338.3 65.629 334.033 69.8574 328.281 69.8574C327.917 69.8708 327.553 69.86 327.19 69.8251C326.828 69.7913 326.468 69.7332 326.114 69.6512C325.761 69.5669 325.413 69.4593 325.074 69.3292C324.734 69.1987 324.404 69.0449 324.085 68.8687C323.767 68.6927 323.46 68.4959 323.168 68.2794C322.875 68.0623 322.598 67.8245 322.34 67.5677C322.08 67.3142 321.838 67.0431 321.615 66.7562C321.392 66.4675 321.189 66.1641 321.007 65.848V77.2287H314.688L314.676 46.5743Z" fill="white" fill-opacity="0.44"/>
<path d="M49.4999 56.0649C54.7297 41.2385 64.7482 24 84.9687 24C105.189 24 115.185 50.5871 116.447 68.621C111.144 77.844 98.4136 81.322 84.9687 81.322C82.2546 81.3665 79.5436 81.1192 76.8824 80.5846C75.5538 80.3144 74.2402 79.9747 72.9472 79.5669C70.3607 78.7482 67.8699 77.6534 65.5178 76.3015C64.3409 75.629 63.2024 74.8915 62.1075 74.0923C59.9132 72.4952 57.8965 70.6674 56.0919 68.6403C56.0919 68.6403 62.4231 51.55 68.3292 51.5081C72.6766 51.5081 76.3446 59.5235 79.8097 59.5235C83.2748 59.5235 90.4915 44.1368 90.4915 44.1368" stroke="white" stroke-opacity="0.44" stroke-width="5.90932" stroke-linecap="round" stroke-linejoin="round"/>
</svg>
