<svg width="389" height="106" viewBox="0 0 389 106" fill="none" xmlns="http://www.w3.org/2000/svg">
<path d="M103.728 14.6C81.8447 14.6 64.1 32.3416 64.1 54.2277C64.1 71.7366 75.4545 86.5907 91.1999 91.8306C93.1803 92.1974 93.9076 90.971 93.9076 89.9242C93.9076 88.9794 93.8706 85.8575 93.8538 82.5463C82.829 84.9434 80.5027 77.8707 80.5027 77.8707C78.7001 73.2902 76.1028 72.0726 76.1028 72.0726C72.5076 69.6129 76.3738 69.6633 76.3738 69.6633C80.3532 69.943 82.4486 73.7471 82.4486 73.7471C85.983 79.8054 91.719 78.0538 93.9803 77.0415C94.3358 74.48 95.363 72.7321 96.4962 71.7425C87.6945 70.7402 78.4415 67.3423 78.4415 52.1581C78.4415 47.8319 79.9896 44.2966 82.5248 41.5215C82.1133 40.5233 80.757 36.4929 82.9086 31.0344C82.9086 31.0344 86.2363 29.9693 93.8091 35.0965C96.9698 34.2182 100.36 33.7781 103.728 33.7632C107.095 33.7781 110.488 34.2182 113.655 35.0965C121.219 29.9693 124.542 31.0344 124.542 31.0344C126.699 36.4929 125.342 40.5233 124.93 41.5215C127.471 44.2966 129.009 47.8316 129.009 52.1581C129.009 67.3783 119.738 70.7299 110.914 71.7108C112.335 72.9406 113.602 75.3524 113.602 79.0492C113.602 84.3514 113.556 88.6189 113.556 89.9242C113.556 90.9787 114.269 92.2145 116.278 91.8253C132.015 86.5795 143.355 71.7307 143.355 54.2277C143.355 32.3416 125.613 14.6 103.728 14.6Z" fill="white" fill-opacity="0.44"/>
<path d="M194.56 60.8311C194.56 63.7195 194.487 66.613 194.597 69.4964C194.643 70.7182 194.168 71.2989 193.152 71.7765C188.986 73.7298 184.605 74.3507 180.062 73.9938C176.988 73.7424 174.016 73.1541 171.309 71.5829C167.287 69.2576 165.182 65.5899 164.27 61.2157C163.043 55.3936 163.139 49.5588 164.886 43.8372C166.744 37.7436 170.826 34.0759 177.166 33.0904C181.689 32.3723 186.313 32.6433 190.721 33.8848C191.201 34.018 191.656 34.2393 192.129 34.4127C192.797 34.6641 192.986 35.1015 192.808 35.7928C192.365 37.4922 191.94 39.1966 191.551 40.9111C191.36 41.7708 190.975 41.9543 190.13 41.6954C186.998 40.7325 183.694 40.4615 180.447 40.901C177.033 41.3485 174.567 43.0982 173.466 46.3939C171.877 51.0738 171.89 56.1495 173.503 60.821C174.667 64.2877 177.274 66.0046 180.965 66.0625C182.303 66.1232 183.644 66.0618 184.972 65.8789C185.575 65.7809 185.842 65.5999 185.829 64.9438C185.794 62.8925 185.784 60.8386 185.829 58.7898C185.849 58.0055 185.512 57.8949 184.861 57.915C183.647 57.9527 182.43 57.8974 181.219 57.9326C180.384 57.9577 179.984 57.6812 180.007 56.7837C180.052 55.024 180.042 53.2643 180.007 51.5046C179.992 50.675 180.354 50.4136 181.143 50.4186C185.206 50.4412 189.268 50.4488 193.328 50.4186C194.253 50.4186 194.585 50.7303 194.567 51.6604C194.535 54.7173 194.56 57.7742 194.56 60.8311Z" fill="white" fill-opacity="0.44"/>
<path d="M263.917 53.8722C263.917 59.8578 263.89 65.8458 263.943 71.8314C263.943 73.0054 263.576 73.3799 262.434 73.3397C260.468 73.2668 258.497 73.2744 256.532 73.3397C255.491 73.3749 255.144 73.023 255.154 71.9747C255.202 67.2436 255.154 62.5124 255.209 57.7813C255.224 56.7154 254.89 56.4666 253.869 56.4867C250.435 56.5495 247.002 56.5319 243.563 56.4867C242.748 56.4867 242.492 56.7054 242.499 57.5475C242.539 62.3239 242.499 67.1003 242.539 71.8641C242.539 72.945 242.243 73.3724 241.124 73.3347C239.073 73.2693 237.021 73.2945 234.97 73.3347C234.128 73.3473 233.779 73.0833 233.781 72.1808C233.801 59.9131 233.801 47.6462 233.781 35.3801C233.781 34.4852 234.138 34.1986 234.97 34.2087C237.064 34.2313 239.158 34.2514 241.255 34.2087C242.26 34.1835 242.547 34.6184 242.539 35.5636C242.507 39.5858 242.554 43.6081 242.504 47.6303C242.504 48.5453 242.695 48.847 243.663 48.8294C247.137 48.7665 250.614 48.7766 254.088 48.8294C254.965 48.8294 255.217 48.6057 255.207 47.7208C255.159 43.6986 255.207 39.6764 255.164 35.6542C255.149 34.5455 255.529 34.176 256.617 34.2112C258.583 34.274 260.554 34.279 262.52 34.2112C263.643 34.1709 263.95 34.6084 263.943 35.6818C263.895 41.7302 263.915 47.8012 263.917 53.8722Z" fill="white" fill-opacity="0.44"/>
<path d="M304.582 71.409C303.964 73.3145 303.964 73.3145 301.917 73.3145C300.995 73.3145 300.067 73.2416 299.152 73.3296C297.996 73.4402 297.719 72.9248 297.737 71.8715C297.787 69.0686 297.754 66.2631 297.754 63.4601C297.754 54.209 297.769 44.9579 297.729 35.7068C297.729 34.5605 298.068 34.1457 299.237 34.1985C301.249 34.2739 303.26 34.2413 305.271 34.1985C306.183 34.1809 306.528 34.5228 306.528 35.4555C306.487 39.0528 306.528 42.6552 306.498 46.2526C306.498 47.2229 306.53 47.6453 307.689 47.0897C310.246 45.8654 312.996 45.6141 315.784 45.9911C319.781 46.5316 322.471 49.1435 323.476 53.7062C324.43 58.1051 324.3 62.6699 323.097 67.0072C321.681 72.2863 318.122 74.398 312.073 74.0008C309.384 73.8467 306.791 72.9495 304.582 71.409ZM306.342 59.9482C306.342 61.7079 306.364 63.4676 306.329 65.2273C306.317 65.8206 306.543 66.1198 307.083 66.3485C308.471 66.9474 309.978 67.2167 311.488 67.1354C313.559 67.0348 314.504 66.2832 314.989 64.2293C315.41 62.262 315.539 60.2437 315.374 58.2388C315.02 52.5121 311.686 51.8309 307.242 53.5378C307.204 53.5571 307.166 53.5739 307.126 53.5881C306.495 53.7565 306.324 54.1738 306.339 54.8073C306.377 56.5167 306.349 58.2312 306.349 59.9482H306.342Z" fill="white" fill-opacity="0.44"/>
<path d="M287.35 71.502C284.976 72.759 282.664 73.6866 280.135 73.9732C277.966 74.2363 275.766 74.0654 273.664 73.4704C270.408 72.5403 268.385 70.137 268.284 66.4064C268.103 60.1217 268.206 53.837 268.179 47.5523C268.179 46.8962 268.49 46.6599 269.101 46.6599C271.404 46.6599 273.708 46.6599 276.012 46.6599C277.055 46.6599 276.95 47.3964 276.95 48.0676C276.95 53.0099 276.95 57.9539 276.95 62.8995C276.95 66.6704 278.443 67.8443 282.166 66.9519C282.417 66.8941 282.651 66.8237 282.89 66.7483C284.836 66.1223 284.838 66.1198 284.838 64.0509C284.838 58.734 284.863 53.4122 284.821 48.0953C284.821 47.0219 285.1 46.587 286.236 46.6398C288.247 46.7202 290.258 46.6976 292.269 46.6398C293.172 46.6196 293.554 46.8911 293.551 47.8489C293.531 55.9336 293.531 64.0174 293.551 72.1003C293.551 73.0531 293.167 73.3573 292.267 73.307C291.305 73.2378 290.339 73.2429 289.378 73.3221C288.071 73.483 287.224 73.1713 287.35 71.502Z" fill="white" fill-opacity="0.44"/>
<path d="M214.927 60.2623C214.927 58.6308 214.927 56.9943 214.927 55.3653C214.912 53.4422 215.178 53.6961 213.295 53.6709C212.667 53.6709 212.039 53.6483 211.413 53.6709C210.658 53.6986 210.369 53.3517 210.389 52.6075C210.425 51.3523 210.425 50.0953 210.389 48.8367C210.372 48.1806 210.591 47.7935 211.264 47.713C211.43 47.6893 211.593 47.6515 211.752 47.5999C212.778 47.2781 214.218 47.4792 214.769 46.6673C215.256 45.9307 214.929 44.6561 214.94 43.6053C214.94 42.4339 214.98 41.2599 214.94 40.0859C214.907 39.3493 215.095 39.0175 215.902 39.0326C218.12 39.0695 220.339 39.0695 222.559 39.0326C223.366 39.0175 223.545 39.3569 223.527 40.0859C223.484 41.6345 223.527 43.183 223.527 44.7341C223.527 46.6195 223.527 46.6195 225.483 46.6195C226.531 46.6195 227.577 46.6472 228.623 46.6195C229.49 46.5893 229.814 46.9388 229.787 47.8111C229.736 49.3571 229.731 50.9082 229.787 52.4567C229.822 53.4145 229.412 53.7137 228.53 53.686C227.149 53.6483 225.764 53.7011 224.387 53.6634C223.738 53.6458 223.514 53.8544 223.522 54.5181C223.552 57.7861 223.522 61.0542 223.547 64.3222C223.562 65.906 224.457 66.8814 226.079 67.0523C226.999 67.1231 227.923 67.1231 228.844 67.0523C229.515 67.0196 229.872 67.2132 229.849 67.9473C229.823 69.4556 229.823 70.9639 229.849 72.4722C229.849 73.0379 229.613 73.2867 229.095 73.425C226.023 74.2194 222.951 74.3149 219.945 73.2465C216.486 72.0147 215.188 69.2243 215.015 65.8004C214.919 63.9628 214.997 62.1176 214.997 60.2699L214.927 60.2623Z" fill="white" fill-opacity="0.44"/>
<path d="M207.931 59.923C207.931 63.9025 207.906 67.882 207.949 71.8589C207.949 72.9449 207.584 73.3673 206.491 73.3321C204.565 73.2742 202.637 73.2893 200.709 73.3321C199.671 73.3522 199.178 72.9927 199.18 71.879C199.205 63.8799 199.205 55.8799 199.18 47.879C199.18 46.9665 199.497 46.5995 200.437 46.6221C202.532 46.664 204.627 46.664 206.722 46.6221C207.662 46.5995 207.959 46.964 207.949 47.879C207.911 51.8811 207.931 55.9033 207.931 59.923Z" fill="white" fill-opacity="0.44"/>
<path d="M208.283 39.7669C208.285 40.395 208.161 41.017 207.919 41.5967C207.677 42.1763 207.322 42.7017 206.874 43.1422C206.427 43.5827 205.895 43.9293 205.312 44.1617C204.728 44.3941 204.104 44.5076 203.476 44.4955C200.817 44.4955 198.62 42.3486 198.642 39.7719C198.665 37.1952 200.849 35.0886 203.534 35.1087C204.781 35.0999 205.98 35.585 206.87 36.4579C207.76 37.3308 208.268 38.5205 208.283 39.7669Z" fill="white" fill-opacity="0.44"/>
</svg>
