<svg width="389" height="107" viewBox="0 0 389 107" fill="none" xmlns="http://www.w3.org/2000/svg">
<path fill-rule="evenodd" clip-rule="evenodd" d="M183.042 61.9465C181.104 62.3936 180.101 61.7972 180.101 60.5134C180.101 58.7543 181.92 58.0501 184.519 58.0501C185.661 58.0501 186.74 58.1488 186.74 58.1488C186.74 58.9019 185.103 61.4713 183.042 61.9465ZM185.015 44.3347C178.81 44.3347 174.355 46.6163 174.355 46.6163V53.3235C174.355 53.3235 179.274 50.4962 183.264 50.4962C186.447 50.4962 186.838 52.2138 186.694 53.6387C186.694 53.6387 185.775 53.3957 182.973 53.3957C176.369 53.3957 173.037 56.3972 173.037 61.2092C173.037 65.7741 176.782 67.6817 179.939 67.6817C184.543 67.6817 186.569 64.5864 187.19 63.1185C187.622 62.1 187.702 61.4132 188.088 61.4132C188.532 61.4132 188.383 61.9059 188.36 62.9194C188.324 64.6951 188.408 66.037 188.689 67.1683H194.796V56.184C194.796 49.3259 192.369 44.3347 185.015 44.3347Z" fill="white" fill-opacity="0.44"/>
<path fill-rule="evenodd" clip-rule="evenodd" d="M225.206 56.0204C225.206 54.0141 227.071 52.187 230.495 52.187C234.224 52.187 237.226 53.9835 237.898 54.3915V46.6269C237.898 46.6269 235.528 44.3444 229.702 44.3444C223.56 44.3444 218.445 47.9381 218.445 55.6737C218.445 63.4085 223.087 67.698 229.685 67.698C234.84 67.698 237.912 64.8657 237.912 64.8657V57.4917C236.94 58.035 234.232 59.9152 230.532 59.9152C226.615 59.9152 225.206 58.1129 225.206 56.0212L225.206 56.0204ZM143.587 44.8528C143.587 44.8578 143.976 46.5265 143.464 48.7086C143.203 49.8183 142.722 50.7622 143.302 50.7622C143.702 50.7622 143.703 50.4304 144.223 49.2411C144.983 47.5027 146.587 44.3386 150.333 44.3386C153.894 44.3386 155.572 46.5025 156.128 48.5286C156.551 50.068 156.181 50.7622 156.697 50.7622C157.063 50.7622 157.19 49.9635 157.641 48.9533C158.452 47.1436 160.214 44.3386 163.779 44.3386C169.157 44.3386 171.211 48.2226 171.211 54.049V67.1772H163.221V55.0741C163.221 53.0562 162.895 51.0989 161.055 51.0989C159.351 51.0989 158.556 54.1195 158.556 56.0693V67.1822H150.419V55.0749C150.419 52.4931 150.055 51.0997 148.24 51.0997C146.669 51.0997 145.753 53.879 145.753 56.0702V67.178H137.648V44.8528H143.586H143.587ZM197.455 44.8835C197.458 44.8852 198.837 45.6806 201.515 45.6806C204.197 45.6806 205.559 44.8835 205.559 44.8835V67.183H197.455V44.8835ZM264.36 44.8835C264.363 44.8852 265.742 45.6806 268.42 45.6806C271.102 45.6806 272.464 44.8835 272.464 44.8835V67.183H264.36V44.8835ZM216.286 38.0942V67.183H208.181V38.0942H216.286ZM247.53 38.0942C247.531 38.0967 247.866 38.9327 247.866 41.4192C247.866 45.0909 247.067 48.0791 246.69 49.2179C246.49 49.8208 246.133 50.7514 246.645 50.768C246.94 50.7771 247.118 50.3325 247.479 49.5612C247.839 48.7891 249.624 44.3436 254.315 44.3436C260.777 44.3436 261.727 49.635 261.727 55.3652V67.1822H253.623V54.88C253.623 52.357 253.093 51.1039 251.402 51.1039C249.36 51.1039 248.639 54.2655 248.639 56.0752V67.1822H240.534V38.0934H247.531L247.53 38.0942ZM281.141 44.8528C281.141 44.8578 281.53 46.5265 281.018 48.7086C280.757 49.8183 280.276 50.7622 280.856 50.7622C281.256 50.7622 281.257 50.4304 281.777 49.2411C282.536 47.5027 284.14 44.3386 287.887 44.3386C291.611 44.3386 293.088 46.5124 293.682 48.5286C294.08 49.8797 293.735 50.7622 294.251 50.7622C294.617 50.7622 294.744 49.9635 295.195 48.9533C296.004 47.1436 297.768 44.3386 301.333 44.3386C306.711 44.3386 308.765 48.2226 308.765 54.049V67.1772H300.774V55.0741C300.774 53.0562 300.448 51.0989 298.609 51.0989C296.905 51.0989 296.109 54.1195 296.109 56.0693V67.1822H287.972V55.0749C287.972 52.4931 287.61 51.0997 285.794 51.0997C284.223 51.0997 283.307 53.879 283.307 56.0702V67.178H275.202V44.8528H281.14H281.141ZM201.482 37.8687C198.744 37.8687 196.522 39.3184 196.522 41.1065C196.522 42.8947 198.743 44.3444 201.482 44.3444C204.222 44.3444 206.444 42.8947 206.444 41.1065C206.444 39.3184 204.223 37.8687 201.482 37.8687ZM268.388 37.8687C265.649 37.8687 263.427 39.3184 263.427 41.1065C263.427 42.8947 265.648 44.3444 268.388 44.3444C271.127 44.3444 273.349 42.8947 273.349 41.1065C273.349 39.3184 271.128 37.8687 268.388 37.8687Z" fill="white" fill-opacity="0.44"/>
<path fill-rule="evenodd" clip-rule="evenodd" d="M322.569 62.3725C320.711 62.3725 319.344 60.0162 319.344 56.7327C319.344 53.5438 320.748 51.0946 322.505 51.0946C324.758 51.0946 325.721 53.1623 325.721 56.7327C325.721 60.4475 324.834 62.3725 322.569 62.3725ZM324.792 44.3311C320.628 44.3311 318.718 47.4537 317.889 49.2327C317.34 50.4079 317.37 50.7538 316.968 50.7538C316.39 50.7538 316.87 49.8099 317.131 48.7002C317.645 46.5148 317.254 44.8453 317.254 44.8453H311.319V73.3286H319.421V64.2983C320.379 65.9247 322.154 67.6623 324.892 67.6623C330.752 67.6623 333.7 62.7051 333.7 56.0079C333.7 48.4174 330.171 44.3311 324.794 44.3311" fill="white" fill-opacity="0.44"/>
<path fill-rule="evenodd" clip-rule="evenodd" d="M109.005 51.0722C109.55 51.0075 110.072 51.0042 110.552 51.0722C110.83 50.4353 110.877 49.338 110.628 48.1429C110.257 46.3663 109.754 45.2915 108.716 45.459C107.677 45.6265 107.639 46.9137 108.011 48.6894C108.22 49.6888 108.591 50.5431 109.005 51.0722Z" fill="white" fill-opacity="0.44"/>
<path fill-rule="evenodd" clip-rule="evenodd" d="M100.094 52.4782C100.837 52.8041 101.294 53.0206 101.472 52.8315C101.587 52.7137 101.552 52.489 101.375 52.1995C101.008 51.6015 100.254 50.9944 99.4541 50.6535C97.8186 49.9494 95.867 50.1833 94.3617 51.2648C93.8649 51.6289 93.3938 52.1332 93.461 52.4392C93.4826 52.5379 93.5572 52.6125 93.7314 52.6374C94.1411 52.6839 95.5726 51.9606 97.2222 51.8595C98.3859 51.7881 99.3504 52.1522 100.094 52.4782" fill="white" fill-opacity="0.44"/>
<path fill-rule="evenodd" clip-rule="evenodd" d="M98.5975 53.3302C97.6296 53.4828 97.0964 53.8021 96.7538 54.0982C96.4619 54.3536 96.2811 54.6364 96.2827 54.8346C96.2836 54.9292 96.3242 54.9839 96.3565 55.0113C96.4005 55.0503 96.4528 55.0719 96.5158 55.0719C96.7339 55.0719 97.2241 54.8753 97.2241 54.8753C98.5702 54.3934 99.4584 54.4523 100.338 54.5518C100.824 54.6066 101.055 54.6364 101.161 54.4697C101.193 54.4216 101.231 54.318 101.134 54.1604C100.907 53.793 99.9303 53.1717 98.5984 53.3302" fill="white" fill-opacity="0.44"/>
<path fill-rule="evenodd" clip-rule="evenodd" d="M105.994 56.4598C106.651 56.7824 107.374 56.6556 107.609 56.177C107.845 55.6985 107.503 55.0482 106.846 54.7256C106.189 54.403 105.466 54.5299 105.231 55.0084C104.995 55.4878 105.337 56.1372 105.994 56.4598Z" fill="white" fill-opacity="0.44"/>
<path fill-rule="evenodd" clip-rule="evenodd" d="M110.218 52.7698C109.685 52.7606 109.242 53.3462 109.23 54.0785C109.217 54.8109 109.64 55.4105 110.173 55.4196C110.707 55.4287 111.15 54.8432 111.162 54.1109C111.174 53.3793 110.751 52.7789 110.218 52.7698Z" fill="white" fill-opacity="0.44"/>
<path fill-rule="evenodd" clip-rule="evenodd" d="M74.3772 65.9637C74.2445 65.797 74.0264 65.8476 73.8149 65.8974C73.6673 65.9322 73.5006 65.9704 73.3173 65.9679C72.925 65.9604 72.5924 65.7929 72.4058 65.5059C72.1628 65.1327 72.1769 64.5762 72.4448 63.9392L72.57 63.6539C72.998 62.6935 73.7137 61.087 72.91 59.5559C72.3046 58.4031 71.3176 57.6857 70.1308 57.5348C68.9912 57.3904 67.8185 57.8126 67.0704 58.6378C65.8902 59.9399 65.7052 61.7123 65.9333 62.3385C66.0171 62.5674 66.1481 62.6313 66.2427 62.6445C66.4434 62.6711 66.7403 62.5251 66.9261 62.025L66.9792 61.8624C67.0621 61.5979 67.2164 61.1052 67.4693 60.7104C67.7745 60.2344 68.249 59.9068 68.8063 59.7865C69.3736 59.6646 69.9542 59.7732 70.4402 60.0917C71.2671 60.6325 71.5855 61.646 71.2322 62.6122C71.0498 63.1123 70.7528 64.0686 70.8184 64.854C70.9511 66.4439 71.9289 67.0825 72.8072 67.1506C73.6615 67.1829 74.2586 66.7027 74.4096 66.3527C74.4983 66.1453 74.4237 66.0193 74.3747 65.9654" fill="white" fill-opacity="0.44"/>
<path fill-rule="evenodd" clip-rule="evenodd" d="M82.499 36.7619C85.2857 33.5422 88.7152 30.7431 91.788 29.1714C91.8942 29.1167 92.007 29.232 91.9498 29.3365C91.7059 29.7785 91.2357 30.7248 91.0872 31.4422C91.064 31.5542 91.1859 31.638 91.2805 31.5741C93.1922 30.2712 96.5172 28.8745 99.4341 28.6954C99.5593 28.6879 99.6199 28.848 99.5203 28.9251C99.0766 29.2651 98.5914 29.7362 98.2373 30.2123C98.1767 30.2936 98.234 30.4097 98.3351 30.4105C100.383 30.4254 103.27 31.142 105.152 32.1978C105.279 32.2691 105.188 32.5155 105.046 32.4831C102.198 31.8304 97.5381 31.3353 92.6962 32.5163C88.3743 33.5704 85.0751 35.1985 82.669 36.9485C82.5471 37.0372 82.4011 36.8763 82.4998 36.7627L82.499 36.7619ZM96.3762 67.9564L96.377 67.9581L96.3787 67.9614L96.3762 67.9564ZM107.866 69.3124C107.949 69.2776 108.006 69.1839 107.997 69.0902C107.985 68.9749 107.882 68.8911 107.767 68.9027C107.767 68.9027 101.821 69.7827 96.2036 67.7267C96.8157 65.7378 98.4421 66.4561 100.901 66.6543C105.333 66.9189 109.306 66.2711 112.242 65.4285C114.786 64.6986 118.127 63.2588 120.723 61.2103C121.598 63.1328 121.907 65.2493 121.907 65.2493C121.907 65.2493 122.584 65.1282 123.151 65.4766C123.686 65.8058 124.078 66.4901 123.81 68.26C123.265 71.5659 121.86 74.2497 119.498 76.7188C118.059 78.2664 116.314 79.6116 114.317 80.5903C113.256 81.1477 112.128 81.6295 110.934 82.0185C102.03 84.9271 92.9152 81.7299 89.9775 74.8643C89.7428 74.3484 89.5446 73.8077 89.3887 73.2429C88.1371 68.7186 89.1996 63.2903 92.522 59.8733V59.8717C92.7269 59.6544 92.9359 59.3981 92.9359 59.0754C92.9359 58.8059 92.7642 58.5214 92.6158 58.319C91.453 56.6329 87.4264 53.76 88.235 48.1998C88.8156 44.2055 92.3089 41.3923 95.5659 41.559L96.3911 41.6063C97.8027 41.69 99.0335 41.8708 100.195 41.9198C102.14 42.0044 103.889 41.7216 105.96 39.9956C106.659 39.4134 107.219 38.9083 108.167 38.7482C108.267 38.7308 108.515 38.6421 109.01 38.6653C109.516 38.6927 109.997 38.8312 110.429 39.119C112.09 40.2237 112.325 42.9001 112.411 44.8574C112.46 45.9746 112.595 48.6784 112.642 49.4547C112.747 51.2295 113.214 51.4792 114.158 51.7902C114.689 51.9652 115.181 52.0954 115.908 52.2994C118.106 52.9165 119.409 53.5427 120.231 54.3472C120.721 54.8498 120.949 55.3839 121.019 55.8931C121.278 57.7841 119.551 60.1196 114.979 62.242C109.981 64.5618 103.918 65.149 99.7285 64.682L98.2605 64.5162C94.9098 64.065 92.9981 68.3952 95.0093 71.3627C96.3057 73.2752 99.8363 74.5193 103.369 74.5201C111.468 74.5209 117.693 71.0624 120.008 68.0759L120.193 67.8121C120.308 67.6404 120.213 67.5459 120.071 67.6429C118.18 68.9376 109.776 74.0772 100.788 72.5304C100.788 72.5304 99.6953 72.3505 98.6984 71.9631C97.9064 71.6546 96.2476 70.8916 96.0461 69.1905C103.3 71.434 107.867 69.3133 107.867 69.3133L107.866 69.3124ZM68.0239 52.0738C65.5009 52.564 63.2774 53.9939 61.918 55.9694C61.1052 55.2918 59.5916 53.9798 59.3237 53.468C57.1532 49.346 61.6924 41.3326 64.864 36.8067C72.7016 25.6225 84.9764 17.1571 90.6584 18.6931C91.5824 18.9543 94.6419 22.5016 94.6419 22.5016C94.6419 22.5016 88.9615 25.6532 83.6942 30.0464C76.5963 35.5112 71.2352 43.4541 68.0231 52.0738H68.0239ZM72.2628 70.9878C71.8813 71.0533 71.4915 71.079 71.0984 71.0691C67.3023 70.9671 63.2027 67.55 62.7955 63.4977C62.3452 59.0182 64.6342 55.5713 68.6866 54.7536C69.1709 54.6557 69.7565 54.5993 70.3876 54.6325C72.6585 54.7569 76.0042 56.5002 76.768 61.4466C77.4448 65.8274 76.3699 70.287 72.2628 70.987V70.9878ZM123.681 63.0556C123.649 62.9403 123.436 62.1665 123.145 61.2335C122.854 60.2996 122.553 59.6436 122.553 59.6436C123.721 57.8961 123.741 56.3327 123.586 55.4477C123.42 54.3505 122.963 53.4158 122.042 52.4487C121.121 51.4825 119.238 50.4922 116.591 49.7491L115.203 49.3634C115.196 49.3062 115.13 46.0899 115.07 44.709C115.026 43.7104 114.941 42.152 114.457 40.6177C113.881 38.5401 112.877 36.7221 111.624 35.5593C115.083 31.9747 117.242 28.0252 117.236 24.638C117.226 18.1233 109.225 16.1519 99.3644 20.2349L97.2752 21.1215C97.2661 21.1124 93.4982 17.4158 93.4418 17.3661C82.1996 7.56035 47.0506 46.6298 58.2878 56.1187L60.7436 58.1996C60.1067 59.8501 59.8562 61.7411 60.061 63.7739C60.3231 66.3856 61.67 68.8886 63.8538 70.8227C65.9264 72.659 68.6517 73.8218 71.2958 73.8193C75.6691 83.897 85.6614 90.0792 97.3772 90.4276C109.945 90.8008 120.494 84.9039 124.915 74.3111C125.204 73.568 126.431 70.2181 126.431 67.2606C126.431 64.2889 124.751 63.0573 123.681 63.0573" fill="white" fill-opacity="0.44"/>
</svg>
