<svg width="388" height="107" viewBox="0 0 388 107" fill="none" xmlns="http://www.w3.org/2000/svg">
<path d="M184.848 69.7602V46.9547H185.25L201.679 69.7602H206.849V36.27H201.105V59.0181H200.702L184.273 36.27H179.103V69.7602H184.848ZM223.106 70.2772C230.688 70.2772 235.341 65.337 235.341 57.0649C235.341 48.8504 230.688 43.8527 223.106 43.8527C215.581 43.8527 210.87 48.8504 210.87 57.0649C210.928 65.337 215.523 70.2772 223.106 70.2772ZM223.106 65.4518C219.085 65.4518 216.787 62.4073 216.787 57.0649C216.787 51.7801 219.085 48.678 223.106 48.678C227.127 48.678 229.425 51.7801 229.425 57.0649C229.425 62.4073 227.127 65.4518 223.106 65.4518ZM240.569 38.1657V44.542H236.548V49.1376H240.569V62.9817C240.569 67.922 242.867 69.8751 248.726 69.8751C249.817 69.8751 250.909 69.7602 251.771 69.5879V65.1072C251.081 65.1646 250.622 65.2221 249.817 65.2221C247.405 65.2221 246.313 64.1306 246.313 61.6031V49.1376H251.771V44.542H246.313V38.1657H240.569ZM255.217 69.7602H260.962V44.3697H255.217V69.7602ZM258.09 40.1762C259.985 40.1762 261.536 38.6252 261.536 36.7296C261.536 34.7765 259.985 33.2255 258.09 33.2255C256.194 33.2255 254.643 34.7765 254.643 36.7296C254.643 38.6252 256.194 40.1762 258.09 40.1762ZM276.702 70.2772C284.284 70.2772 288.937 65.337 288.937 57.0649C288.937 48.8504 284.284 43.8527 276.702 43.8527C269.176 43.8527 264.466 48.8504 264.466 57.0649C264.466 65.337 269.061 70.2772 276.702 70.2772ZM276.702 65.4518C272.68 65.4518 270.383 62.4073 270.383 57.0649C270.383 51.7801 272.68 48.678 276.702 48.678C280.665 48.678 283.02 51.7801 283.02 57.0649C282.963 62.4073 280.665 65.4518 276.702 65.4518ZM292.326 69.7602H298.071V54.9969C298.071 51.263 300.254 48.9078 303.643 48.9078C307.147 48.9078 308.756 50.8609 308.756 54.7097V69.7602H314.5V53.3311C314.5 47.2419 311.398 43.8527 305.768 43.8527C301.977 43.8527 299.45 45.576 298.243 48.4483H297.841V44.3697H292.269C292.326 44.3697 292.326 69.7602 292.326 69.7602Z" fill="white" fill-opacity="0.44"/>
<path fill-rule="evenodd" clip-rule="evenodd" d="M103.576 29.5917C105.893 31.4651 106.731 31.3172 111.069 31.0214L151.937 28.5565C152.825 28.5565 152.085 27.6691 151.79 27.5705L144.986 22.6899C143.705 21.704 141.93 20.5208 138.627 20.8166L99.0894 23.7252C97.6597 23.8731 97.3639 24.6126 97.9555 25.1549L103.576 29.5917ZM106.04 39.1064V82.0947C106.04 84.4118 107.174 85.2499 109.787 85.102L154.698 82.4891C157.311 82.3412 157.607 80.7637 157.607 78.8903V36.1977C157.607 34.3244 156.867 33.2891 155.29 33.437L108.357 36.1977C106.632 36.3456 106.04 37.233 106.04 39.1064ZM150.36 41.4234C150.656 42.7052 150.36 44.0362 149.078 44.1841L146.909 44.6278V76.3761C145.036 77.3621 143.31 77.9537 141.831 77.9537C139.514 77.9537 138.923 77.2142 137.197 75.045L123.048 52.8114V74.3056L127.535 75.2915C127.535 75.2915 127.535 77.9044 123.936 77.9044L113.978 78.4959C113.682 77.9044 113.978 76.4747 114.964 76.1789L117.576 75.4394V47.0434L113.978 46.7476C113.682 45.4659 114.421 43.5925 116.442 43.4446L127.14 42.7052L141.881 65.1853V45.318L138.134 44.8743C137.838 43.2967 139.021 42.1136 140.451 41.9657L150.36 41.4234ZM95.7863 19.7813L136.951 16.7741C141.979 16.3304 143.31 16.6262 146.465 18.9432L159.579 28.1621C161.748 29.7396 162.487 30.1833 162.487 31.9088V82.5384C162.487 85.6935 161.353 87.5669 157.311 87.8627L109.541 90.7713C106.484 90.9192 105.054 90.4755 103.477 88.4543L93.7651 75.8831C92.0397 73.5661 91.3002 71.8406 91.3002 69.8194V24.8098C91.3002 22.1969 92.4833 20.0771 95.7863 19.7813Z" fill="white" fill-opacity="0.44"/>
</svg>
