<svg width="388" height="106" viewBox="0 0 388 106" fill="none" xmlns="http://www.w3.org/2000/svg">
<path fill-rule="evenodd" clip-rule="evenodd" d="M198.815 40.8158C197.151 39.416 194.31 38.7168 190.292 38.7168H181.228V66.7261H188.005V57.9476H191.041C194.726 57.9476 197.428 57.1367 199.147 55.5133C201.084 53.6946 202.059 51.2728 202.059 48.2496C202.059 45.1145 200.977 42.6361 198.815 40.8158ZM190.873 51.6098H188.005V45.0547H190.581C193.715 45.0547 195.282 46.1537 195.282 48.3519C195.282 50.5217 193.811 51.6082 190.873 51.6082M213.656 38.7153H206.589V66.7245H221.847V60.3851H213.656V38.7153ZM235.693 38.7153L224.592 66.7245H232.2L233.655 62.6526H243.301L244.632 66.7245H252.325L241.303 38.7153H235.693ZM235.609 56.9824L238.521 47.4087L241.386 56.9824H235.608H235.609ZM255.856 66.7245H262.924V38.7153H255.856V66.7245ZM290.366 43.965C289.474 42.6705 288.327 41.5707 286.997 40.7323C284.863 39.3876 281.952 38.7168 278.266 38.7168H268.953V66.7245H279.846C283.783 66.7245 286.942 65.4381 289.326 62.862C291.71 60.2875 292.9 56.8706 292.9 52.6144C292.9 49.229 292.054 46.3459 290.365 43.965M279.056 60.3836H276.022V45.0562H279.098C281.26 45.0562 282.922 45.7333 284.087 47.0828C285.252 48.4322 285.835 50.347 285.835 52.8254C285.835 57.8642 283.575 60.3836 279.056 60.3836ZM123.846 15.2L100.94 21.1992L94.6275 44.2343L102.523 52.3404L94.5 60.3127L100.441 83.4485L123.248 89.821L131.272 81.8471L139.167 89.9517L162.073 83.9524L168.384 60.9158L160.491 52.8128L168.513 44.8405L162.572 21.7031L139.762 15.3306L131.741 23.3029L123.846 15.2ZM109.79 25.6302L121.856 22.4684L127.132 27.8851L119.437 35.5314L109.79 25.6302ZM136.278 27.9575L141.639 22.6306L153.654 25.9876L143.848 35.7298L136.278 27.9575ZM101.857 42.3432L105.181 30.2108L114.825 40.1119L107.132 47.7583L101.857 42.3416V42.3432ZM148.382 40.3859L158.187 30.6406L161.314 42.8282L155.954 48.1567L148.382 40.3859ZM123.972 40.186L131.667 32.5396L139.236 40.3119L131.543 47.9583L123.972 40.186ZM111.668 52.4128L119.362 44.7665L126.936 52.5388L119.239 60.1852L111.668 52.4128ZM136.079 52.6128L143.773 44.9665L151.344 52.7388L143.648 60.3851L136.079 52.6128ZM101.696 62.3235L107.059 56.9934L114.628 64.7673L104.826 74.5079L101.696 62.3235ZM123.774 64.8397L131.469 57.1934L139.04 64.9657L131.346 72.612L123.774 64.8397ZM148.183 65.0413L155.879 57.3949L161.155 62.81L157.833 74.9425L148.183 65.0413ZM109.36 79.1656L119.163 69.4203L126.737 77.1926L121.374 82.5227L109.36 79.164V79.1656ZM135.881 77.2666L143.574 69.6203L153.221 79.523L141.156 82.6833L135.881 77.2666Z" fill="white" fill-opacity="0.44"/>
</svg>
