<svg width="389" height="106" viewBox="0 0 389 106" fill="none" xmlns="http://www.w3.org/2000/svg">
<path d="M56.9 23.2V58.1011L73.5336 82.4185H92.7947L82.7042 58.1011H105.439V23.2H56.9ZM146.475 60.4931H139.089V73.7631H129.709V31.8884H146.475C154.909 31.8884 161.221 38.1444 161.221 46.2183C161.221 54.2923 154.909 60.4931 146.475 60.4931ZM146.063 40.7351H139.089V51.7052H146.063C149.426 51.7052 151.844 49.2875 151.844 46.2183C151.844 43.1492 149.426 40.7351 146.063 40.7351ZM162.991 59.0174C162.967 55.9438 163.856 52.9323 165.546 50.365C167.236 47.7976 169.651 45.7901 172.484 44.5972C175.316 43.4043 178.44 43.0797 181.457 43.6645C184.475 44.2494 187.251 45.7174 189.433 47.8823C191.615 50.0471 193.104 52.8113 193.713 55.8242C194.321 58.8371 194.021 61.9628 192.851 64.8048C191.68 67.6469 189.692 70.0772 187.138 71.7874C184.584 73.4977 181.579 74.4107 178.506 74.4108C176.474 74.4264 174.46 74.0397 172.578 73.2731C170.697 72.5065 168.986 71.3752 167.543 69.9443C166.101 68.5133 164.956 66.8112 164.175 64.9358C163.394 63.0605 162.991 61.049 162.991 59.0174ZM185.049 59.0174C185.049 54.8295 182.219 51.9408 178.502 51.9408C174.785 51.9408 171.955 54.8295 171.955 59.0174C171.955 63.2052 174.785 66.0977 178.502 66.0977C182.219 66.0977 185.049 63.2052 185.049 59.0174ZM197.734 59.0174C197.734 50.6417 203.688 43.624 211.416 43.624C215.365 43.624 218.588 45.6296 219.769 47.223V30.8175H228.675V73.7631H219.773V69.9543C218.496 72.1991 215.357 74.4108 211.42 74.4108C203.692 74.4108 197.734 67.3931 197.734 59.0174ZM220.145 59.0174C220.145 54.7707 217.433 51.7052 213.421 51.7052C209.41 51.7052 206.698 54.7707 206.698 59.0174C206.698 63.2641 209.41 66.3332 213.421 66.3332C217.433 66.3332 220.145 63.2641 220.145 59.0174ZM235.995 44.2716H244.9V73.7631H235.995V44.2716ZM251.859 61.0819V44.2716H260.772V59.551C260.772 63.8566 262.012 66.3295 265.313 66.3295C268.677 66.3295 270.859 64.0295 270.859 58.6015V44.2716H279.764V73.7631H270.859V69.8955C269.549 72.5598 266.848 74.4108 263.013 74.4108C255.701 74.4108 251.866 69.1043 251.866 61.0819M287.08 44.2716H295.986V48.1393C297.119 45.8172 300.045 43.6092 303.526 43.6092C307.773 43.6092 311.777 45.7767 313.065 49.7364C314.353 45.9276 317.591 43.6092 321.694 43.6092C328.889 43.6092 332.9 48.7612 332.9 56.9529V73.7631H323.994V58.4875C323.994 54.1819 322.754 51.7052 319.748 51.7052C316.623 51.7052 314.437 54.0641 314.437 59.4332V73.7631H305.532V58.4875C305.532 54.1819 304.295 51.7052 301.285 51.7052C298.161 51.7052 295.979 54.0641 295.979 59.4332V73.7631H287.073L287.08 44.2716ZM235.928 30.8175H244.896V38.9135H235.932L235.928 30.8175Z" fill="white" fill-opacity="0.44"/>
</svg>
